<svg viewBox="0 0 130 35" xmlns="http://www.w3.org/2000/svg"><g fill="none" fill-rule="evenodd"><path d="M59.487 10c3.16 0 5.326 1.583 6.037 2.499.213.246.178.528-.035.74l-.285.281c-.318.316-.604.211-.888-.071-.39-.422-2.236-1.937-4.829-1.937-3.728 0-6.924 3.063-6.924 6.935 0 3.942 3.054 7.039 6.96 7.039 2.982 0 4.723-2.005 5.184-2.498.284-.317.533-.282.782-.036l.32.282c.212.211.248.422.105.633-.674.986-3.018 3.133-6.427 3.133C54.836 27 51 23.41 51 18.482 51 13.59 54.836 10 59.487 10m21.978 7.532c0-3.203-2.058-6.019-5.686-6.019-3.488 0-6 2.64-6.21 6.02h11.896zM75.78 10c4.255 0 7.22 3.239 7.22 7.391 0 .634 0 1.584-.593 1.584H69.535c.069 3.625 2.79 6.512 6.244 6.512 2.267 0 3.977-.951 4.954-1.62.348-.21.523-.246.697 0l.384.599c.14.14.104.423-.174.633-.942.775-3.315 1.901-5.861 1.901C71.035 27 68 23.199 68 18.447 68 13.837 71.035 10 75.779 10zm12.22.9c0-.287.207-.54.552-.54h.172c.31 0 .448.144.483.432l.173 1.764C89.896 11.981 91.828 10 95 10c4.517 0 6 2.917 6 7.275v9.185c0 .288-.241.54-.517.54H100c-.276 0-.518-.252-.518-.54v-9.113c0-3.854-1.482-5.8-4.55-5.8-3.242 0-5.276 2.63-5.415 2.847V26.46c0 .36-.172.54-.517.54h-.552c-.31 0-.448-.252-.448-.54V10.9zm19.502.72h-1.973c-.424 0-.529-.214-.529-.536v-.573c0-.322.211-.429.529-.429h1.973V5.576c0-.323.247-.502.564-.537l.458-.036c.282-.036.53.25.53.537v4.542h5.745c.353 0 .564.25.564.537v.465c0 .322-.211.536-.564.536h-5.746v10.802c0 2.146.353 3.04 2.221 3.04 1.797 0 3.243-1.001 3.736-1.323.388-.215.529-.036.635.142l.282.501c.14.286.07.466-.14.644-.6.465-2.505 1.574-4.724 1.574-3.032 0-3.56-2.039-3.56-4.4V11.62zm10.56 12.986l.341-.563c.152-.245.493-.28.796-.07.455.352 2.311 1.584 4.776 1.584 2.653 0 4.359-1.197 4.359-2.921 0-1.866-2.123-2.745-5.08-3.766-3.07-1.022-5.23-2.147-5.23-4.717 0-1.76 1.592-4.153 5.61-4.153 2.31 0 4.055.739 4.926 1.232.265.175.379.457.227.739l-.227.387c-.151.282-.455.282-.757.14-.417-.21-2.312-1.055-4.17-1.055-2.766 0-3.941 1.443-3.941 2.675 0 1.618 1.743 2.499 4.32 3.379 3.26 1.127 5.988 2.041 5.988 5.139 0 2.463-2.5 4.364-6.025 4.364-2.957 0-4.776-1.126-5.724-1.796-.189-.14-.341-.351-.189-.598" fill="#1B2E3D"/><path d="M15.104 29.55a28.83 28.83 0 0 1-3.607-.854C4.879 26.665.265 22.464.012 17.57A2.333 2.333 0 0 0 0 17.386V14c.143 1.175.491 2.31 1.02 3.386 2.763 5.615 10.44 9.653 19.48 9.653 9.04 0 16.717-4.038 19.48-9.653A10.53 10.53 0 0 0 41 14l-.005 3.386a9.755 9.755 0 0 1-.007.184c-.252 4.893-4.867 9.095-11.485 11.126-1.92.59-4.009.997-6.209 1.185A40.65 40.65 0 0 0 30 29c-2.674.637-5.74 1-9 1h-.5c-1.183 0-2.343-.063-3.471-.184A36.51 36.51 0 0 1 12 29c.993.22 2.03.404 3.104.55zm5.396 3.04c9.737 0 17.893-3.805 20.029-8.916A7.05 7.05 0 0 0 41 22l-.005 1.674C40.792 29.949 31.695 35 20.5 35 9.306 35 .21 29.949 0 23.675V22a7.05 7.05 0 0 0 .472 1.675c2.136 5.11 10.292 8.916 20.028 8.916zM1 12.501C1 5.607 9.748 0 20.5 0S40 5.608 40 12.5C40 19.393 31.252 25 20.5 25S1 19.393 1 12.5zM20.402 4C13 4 7 7.805 7 12.5c0 4.517 5.557 8.211 12.572 8.483.275.011.552.017.83.017 4.562 0 8.581-1.45 11-3.658.052-.044.1-.088.145-.135.283-.29.453-.629.453-.994 0-1.052-1.344-1.904-3.003-1.904-1.03 0-1.937.329-2.478.83l-.022.023c-1.335 1.227-3.565 2.033-6.095 2.033-4.088 0-7.402-2.102-7.402-4.695 0-2.593 3.314-4.695 7.402-4.695 2.53 0 4.76.806 6.095 2.033l.022.022c.541.502 1.449.831 2.478.831 1.66 0 3.003-.852 3.003-1.904 0-.365-.17-.704-.453-.994a11.16 11.16 0 0 0-.144-.136C28.983 5.45 24.964 4 20.403 4z" fill="#26CAD3"/></g></svg>